<?xml version="1.0" encoding="utf-8"?>
<!-- Generator: Adobe Illustrator 26.0.2, SVG Export Plug-In . SVG Version: 6.00 Build 0)  -->
<svg version="1.1" id="Isolation_Mode" xmlns="http://www.w3.org/2000/svg" xmlns:xlink="http://www.w3.org/1999/xlink" x="0px"
	 y="0px" viewBox="0 0 500 500" style="enable-background:new 0 0 500 500;" xml:space="preserve">
<g>
	<g>
		<g>
			<path d="M440,435.6H60V64.4h380V435.6z M90,405.6h320V94.4H90V405.6z"/>
		</g>
	</g>
	<g>
		<g>
			<g>
				<path d="M277.8,324h-45l-12-35.4h-47.4L161.8,324H120l50.9-148.5l1.2-14.1H220L277.8,324z M240,314h23.6L213,171.4h-31.7
					l-0.5,6.1L134,314h20.6l11.7-35.4h61.8L240,314z"/>
			</g>
		</g>
		<g>
			<g>
				<path d="M222.1,258.9h-50.5l25-82.8L222.1,258.9z M185.1,248.9h23.5l-11.9-38.5L185.1,248.9z"/>
			</g>
		</g>
		<g>
			<path d="M339.9,324.2c-2.6,0-5.3-0.1-7.9-0.3c-8.1-0.6-15-2.3-21.1-5.3c-12.1-5.8-20.5-15.1-25-27.7c-6.2-17.3-5.7-34.6,1.5-51.5
				c4.7-10.9,12.2-19.4,22.4-25.2c5.6-3.2,12-5.1,19-5.7c3.6-0.3,6.9-0.4,10-0.3c7.9,0.2,15.4,2.2,22.4,5.9
				c6.8,3.6,12.4,9.3,16.5,16.7c3.6,6.4,5.7,13.4,6.5,20.8c0.5,5.2,0.4,10.8-0.2,17.5c0,0.2,0,0.5-0.1,0.7c0,0.6-0.1,1.2-0.2,1.9
				l-0.7,5l-5.3,0.6c-0.7,0.1-1.5,0.1-2.2,0.2c-2.2,0.2-4.6,0.4-6.9,0.4c-2.3,0-4.5-0.1-6.7-0.2c-0.9,0-1.8-0.1-2.7-0.1
				c-0.5,0-0.9,0-1.4-0.1c-0.7,0-1.4-0.1-2.1-0.1c-9.9,0-19.8,0-29.6,0l-5.1,0c0.4,1.2,0.9,2.4,1.5,3.5c1.8,3.2,4.2,5.5,7.6,7
				c5.4,2.4,10.8,3.4,16.6,3.1c6.9-0.4,13-1.3,18.7-2.9c0.8-0.2,1.7-0.5,2.7-0.9c0.5-0.2,1.1-0.4,1.7-0.6l5.5-1.8l0.5,5.7
				c0,0.2,0,0.4,0.1,0.6c0.1,0.5,0.1,1,0.1,1.6c0,5.7,0,11.4,0,17.1v1.3c0,0.2,0,0.4,0,0.6l-0.1,2.1l-0.2,2.6l-4.2,2.1
				c-3.6,1.5-7.2,2.6-10.8,3.4C353.8,323.5,346.9,324.2,339.9,324.2z M336.7,217.2c-2.3,0-4.7,0.1-7.3,0.3
				c-5.8,0.4-10.7,1.9-15.2,4.5c-8.5,4.9-14.7,12-18.6,21c-6.3,14.7-6.8,29.8-1.3,44.9c3.7,10.3,10.6,17.9,20.5,22.7
				c5.1,2.4,10.9,3.9,17.9,4.4c8.9,0.7,17.6,0.1,25.9-1.7c2.7-0.6,5.4-1.4,8.2-2.5v-0.9c0-4.3,0-8.6,0-12.9
				c-6,1.6-12.5,2.6-19.6,2.9c-7.2,0.4-14.1-0.9-20.7-3.8c-5.1-2.3-9.1-5.9-11.8-10.9c-1.8-3.2-2.9-6.8-3.6-10.8l-1-6.1h5.3
				c0.2,0,0.6,0,0.9,0c0.4,0,0.8,0,1.1,0l8.7,0c9.9,0,19.8,0,29.7,0c0.9,0,1.8,0.1,2.6,0.1c0.4,0,0.8,0,1.2,0.1
				c0.9,0,1.8,0.1,2.8,0.1c2.1,0.1,4.1,0.2,6.1,0.2c2.1,0,4.1-0.2,6.3-0.4c0.1,0,0.2,0,0.3,0c0-0.1,0-0.2,0-0.3
				c0.6-6.2,0.7-11.2,0.2-15.8l0,0c-0.6-6.1-2.4-12-5.4-17.3c-3.3-6-7.5-10.3-12.9-13.1c-5.7-3-11.9-4.6-18.3-4.8
				C338,217.2,337.4,217.2,336.7,217.2z M331.6,258.6c-4,0-8.1,0-12.1,0l-2.2,0c-0.5,0-1,0-1.6-0.1l-5.7-0.3l0.7-4.9
				c0-0.3,0.1-0.5,0.1-0.8c0.1-0.6,0.2-1.2,0.3-1.8c0.6-3,1.6-5.7,2.8-8c4.3-7.9,11.3-12.2,20.3-12.4c4.5-0.1,8.3,0.7,11.6,2.5
				c7.2,4,11.2,10.4,11.5,18.5c0.2,3.5-1.3,5.6-4.7,6.6c-1,0.3-2,0.5-3,0.5c-2.6,0.1-4.5,0.1-6.4,0.2
				C339.5,258.6,335.5,258.6,331.6,258.6z M320.9,249.6c7.5,0,15,0,22.5,0c1.4,0,3,0,4.8-0.1c-0.7-3.8-2.9-6.7-6.7-8.8
				c-1.8-1-4-1.5-7-1.4c-5.8,0.1-9.9,2.6-12.6,7.7C321.5,247.9,321.2,248.7,320.9,249.6z"/>
		</g>
	</g>
</g>
</svg>
