<?xml version="1.0" encoding="UTF-8"?>
<svg id="eye-closed-svg" data-name="Layer 1 copy" xmlns="http://www.w3.org/2000/svg" viewBox="0 0 60.41 47.08">
  <path class="cls-1" d="m56.88,37.07l3.54-3.54-7.89-7.89c1.66-1.97,3.09-4.16,4.2-6.55l-4.54-2.1c-3.94,8.53-12.57,14.04-21.97,14.04s-18.03-5.51-21.97-14.04l-4.54,2.1c1.11,2.4,2.54,4.59,4.2,6.55l-7.89,7.89,3.54,3.54,7.9-7.9c1.65,1.38,3.44,2.57,5.35,3.56l-4.28,10.33,4.62,1.91,4.28-10.33c2.03.65,4.14,1.08,6.3,1.26v11.17h5v-11.17c2.16-.19,4.27-.62,6.3-1.26l4.28,10.33,4.62-1.91-4.28-10.33c1.91-.99,3.7-2.18,5.35-3.56l7.9,7.9Z"/>
</svg>