<?xml version="1.0" encoding="utf-8"?>
<!-- Generator: Adobe Illustrator 26.0.2, SVG Export Plug-In . SVG Version: 6.00 Build 0)  -->
<svg version="1.1" id="Layer_1" xmlns="http://www.w3.org/2000/svg" xmlns:xlink="http://www.w3.org/1999/xlink" x="0px" y="0px"
	 viewBox="0 0 500 500" style="enable-background:new 0 0 500 500;" xml:space="preserve">
<style type="text/css">
	.st0{fill:#75C7A3;}
</style>
<g>
	<path class="st0" d="M287.8,68.4c1.1,1.7,2.3,3.2,3.3,5c5.9,10.5,6.7,21.6,3.8,33.1c-2.7,10.7-8.2,19.9-15,28.5
		c-8.2,10.5-17.9,19.5-28.4,27.8c-7.2,5.7-14,11.8-19.7,19c-3.1,3.9-5.7,8.1-7.6,12.7c-4.1,9.7-3.8,19.4,0.2,29.1
		c2.3,5.6,5.4,10.8,8.8,15.8c4.4,6.5,8.9,13,13.2,19.6c1.3,2,2.4,4.2,3.8,6.7c-0.8-0.3-1-0.3-1.2-0.4
		c-11.2-10.1-22.2-20.5-31.7-32.3c-5.2-6.4-9.7-13.3-12.5-21.1c-3.8-10.8-2.4-20.8,4.3-30c5.8-8.1,13-14.9,20.7-21.2
		c9-7.3,18.1-14.4,27.1-21.8c8.3-6.8,15.9-14.2,22-23c7.4-10.7,11-22.5,10.2-35.6c-0.2-3-0.8-6-1.2-9c-0.1-0.9-0.3-1.8-0.5-2.6
		C287.5,68.6,287.7,68.5,287.8,68.4z"/>
	<path d="M172.2,377c-9.2,1.1-17.9,3.4-26.2,7.3c-2,0.9-3.9,2.1-5.5,3.5c-2.6,2.2-2.4,4.6,0.7,6.2c3,1.5,6.2,2.6,9.4,3.5
		c7,2.1,14.2,3.2,21.4,4.2c9.3,1.2,18.7,2,28,2.6c15.4,1,30.9,1,46.3,0.9c7.6-0.1,15.1-0.3,22.7-0.6c8-0.4,16.1-0.8,24.1-1.5
		c10.7-1,21.3-2.1,32-3.5c8.9-1.2,17.7-2.7,26.3-5.5c2.7-0.9,5.3-2.1,7.9-3.3c0.9-0.4,1.7-1.1,2.5-1.7c2.9-2.5,3.4-4.6,2-8.3
		c2,0.6,3.7,2.1,4.4,3.9c0.7,1.7,0.3,3.2-0.7,4.5c-1.2,1.4-2.5,2.7-4,3.8c-4.5,3.2-9.6,5.2-14.7,7c-9.8,3.4-19.8,5.7-29.9,7.5
		c-7.4,1.3-14.9,2.5-22.3,3.4c-5.8,0.8-11.7,1.2-17.5,1.7c-17.5,1.5-35,2.1-52.6,1.9c-7.5-0.1-14.9-0.5-22.4-0.8
		c-6.7-0.3-13.4-0.7-20.1-1.2c-6.1-0.5-12.2-1.2-18.3-1.8c-5.9-0.7-11.8-1.3-17.7-2.2c-6.9-1-13.7-2.1-20.5-3.5
		c-2.7-0.5-5.3-1.7-7.7-3c-4-2.2-4.4-5.5-1.3-8.9c2.2-2.5,4.9-4.3,7.8-5.8c9.6-5.2,19.9-8.6,30.7-10.1c3.8-0.5,7.7-0.4,11.5-0.5
		C169.6,376.3,170.9,376.8,172.2,377z"/>
	<path class="st0" d="M265.2,278.1c0.5-0.6,1-1.2,1.4-1.7c2.5-3,4.6-6.2,6-9.8c2.7-7.2,2.1-14.2-2.1-20.7c-1.2-1.8-2.5-3.5-3.9-5.2
		c-5.3-6.4-10-13.2-12.8-21.2c-4.7-13.2-2.5-25.2,5.7-36.4c5.6-7.7,12.9-13.6,20.9-18.7c11.2-7.3,23.2-12.7,35.7-17.2
		c4.6-1.7,9.4-3.1,14.2-4.3c-0.5,0.4-1.1,0.7-1.6,1.1c-12,7.2-23.9,14.5-35,23.2c-5.2,4-10.1,8.3-14.3,13.4c-1,1.2-2,2.5-2.9,3.8
		c-6,8.5-6.5,17.5-1.3,26.5c2.7,4.7,5.8,9,8.8,13.5c1.1,1.6,2.3,3.1,3.3,4.7c6.5,9.7,6.4,19.5,0.2,29.3c-4.6,7.3-11,12.8-18.1,17.6
		c-1.2,0.8-2.4,1.5-3.6,2.3C265.7,278.2,265.5,278.1,265.2,278.1z"/>
	<path d="M307,367c-4.5,1.6-8.4,3.1-12.5,4.4c-10.6,3.4-21.5,5.5-32.7,6.7c-8.9,1-17.8,1.2-26.6,0.8c-11.8-0.5-23.5-2-34.8-6
		c-3.2-1.1-6.3-2.7-9.3-4.3c-1.5-0.8-2.9-2-4-3.3c-2.5-2.8-2.3-5.7,0.3-8.3c0.9-0.9,1.9-1.7,2.9-2.3c3-1.9,6.3-3.2,10.1-4.3
		c-0.5,0.6-0.8,1-1.1,1.3c-1.8,2.4-1.4,4.3,1.2,5.8c3,1.8,6.5,2.3,9.9,2.7c9.5,1.3,19,2.1,28.5,2.3c5.9,0.1,11.7-0.3,17.6-0.7
		c8.9-0.5,17.7-1.9,26.4-3.7c3.5-0.7,6.4-0.2,9.5,1.6C296.9,362.3,301.7,364.4,307,367z"/>
	<path d="M325,282.4c-2.7,1.4-5.5,2.6-7.9,4.2c-4.3,2.9-9,4.3-14,5.3c-9.3,1.9-18.6,3.5-28,4.5c-7.4,0.7-14.8,1.4-22.3,2
		c-18.3,1.5-36.6,1.5-54.9,0.8c-12.3-0.4-24.6-1.4-36.7-4c-3.7-0.8-7.3-2-10.8-3.1c-1.3-0.4-2.5-1.3-3.6-2.2c-1.6-1.3-1.7-3-0.2-4.4
		c1.5-1.4,3.2-2.7,5.1-3.5c5.9-2.6,11.9-5.1,17.9-7.3c9.4-3.3,19.1-5.1,28.9-6.2c2.1-0.2,4.2,0,6.7,0c-3.3,0.9-6.3,1.7-9.2,2.6
		c-5.7,1.9-11.4,3.9-17,6.1c-2.1,0.8-4.1,2-5.9,3.4c-3.2,2.4-2.9,4.8,0.8,6.3c2.4,1,4.9,1.7,7.5,2.1c5.1,0.7,10.3,1.4,15.5,1.6
		c11.7,0.3,23.5,0.6,35.2,0.4c9.3-0.1,18.6-0.8,27.9-1.4c5.4-0.3,10.7-0.6,16.1-1.1c6.8-0.7,13.7-1.4,20.5-2.3
		c6.5-0.8,12.9-1.8,19.4-2.7c2.9-0.4,5.9-0.9,8.8-1.4C324.9,282.3,325,282.4,325,282.4z"/>
	<path d="M312.8,328c-2.2,0.6-4.4,1.2-6.5,1.8c-10.7,2.8-21.6,4.8-32.5,6.3c-6,0.8-12,1.3-18,1.7c-7,0.4-14.1,0.9-21.1,0.8
		c-12.6-0.1-25.1-0.9-37.5-3.4c-5-1-10-2.3-14.6-4.5c-1.8-0.9-3.6-1.9-5.2-3.1c-3.5-2.8-3.7-6-0.5-9.2c1-1,2.2-1.9,3.4-2.6
		c3.5-2.3,7.4-3.8,11.6-5.4c-0.9,1.3-1.8,2.3-2.4,3.4c-1.7,2.9-1.1,5.4,1.9,7c1.7,0.9,3.5,1.7,5.4,2c4.3,0.7,8.6,1.2,13,1.6
		c6.7,0.5,13.4,1.1,20.1,1.3c5.5,0.2,11.1,0,16.6-0.1c3.8-0.1,7.5-0.3,11.3-0.6c6.9-0.7,13.8-1.4,20.7-2.3
		c6.4-0.9,12.7-2.1,19.1-3.2c1.1-0.2,2.1-0.2,3.1,0.6c3.6,3.1,7.6,5.5,11.9,7.4C312.5,327.5,312.5,327.7,312.8,328z"/>
	<path d="M168.1,422.1c3.5,0.4,7,0.9,10.4,1.3c4.2,0.5,8.3,1,12.5,1.3c6.5,0.5,13,0.9,19.6,1.4c0.3,0,0.7,0.1,1,0.1
		c13,0.2,26,0.5,39,0.4c8,0,16.1-0.4,24.1-1c8.6-0.6,17.2-1.5,25.8-2.3c15.9-1.6,31.7-4.3,47.3-8.1c7.4-1.8,14.7-4,21.7-7
		c5-2.1,9.9-4.6,14-8.4c0.1-0.1,0.3-0.1,0.6-0.1c-0.9,3.8-3,6.8-5.9,9.1c-2.8,2.2-5.8,4.3-9,6c-8,4.2-16.6,6.6-25.4,8.7
		c-9.5,2.3-19.2,3.7-29,4.9c-6,0.8-12,1.1-18,1.7c-21.2,1.9-42.4,1.8-63.6,1.4c-7.6-0.1-15.2-0.8-22.8-1.3c-5.7-0.4-11.4-0.9-17-1.7
		c-7.9-1-15.7-2.3-23.3-5c-0.7-0.2-1.4-0.5-2.1-0.8C168.1,422.4,168.1,422.2,168.1,422.1z"/>
	<path d="M336.4,270c1.4-0.8,2.7-2,4.2-2.5c9.2-3.4,18.6-3.8,27.7,0.2c8.1,3.5,13.7,9.3,15.5,18.2c1.3,6.5-0.1,12.6-3.5,18.3
		c-3,5.1-7.1,9.3-11.8,13c-7.6,5.9-16.2,10.2-25.2,13.5c-4.3,1.6-8.7,2.9-13.1,4.3c-0.6,0.2-1.3,0.3-2.1,0c0.8-0.4,1.5-0.9,2.3-1.3
		c8.4-4.5,16.5-9.6,23.8-16c5.1-4.5,9.7-9.5,12.8-15.7c2.5-4.9,3.7-10.1,2.5-15.6c-1.8-8.6-7.5-13.8-15.6-16.6
		c-4.9-1.7-9.9-1.3-14.8,0.1c-0.8,0.2-1.6,0.4-2.4,0.7C336.6,270.3,336.5,270.1,336.4,270z"/>
</g>
</svg>
