<svg class="front" version="1.1" id="Layer_1" xmlns="http://www.w3.org/2000/svg" xmlns:xlink="http://www.w3.org/1999/xlink" x="0px" y="0px"
	 viewBox="0 0 500 500" style="enable-background:new 0 0 500 500;" xml:space="preserve">
<g>
	<path d="M185.1,246.9c-11.7-18.7-23.5-37.4-35.1-56.1c-1.3-2-2.6-2.8-5-2.8c-5.9,0.2-11.9,0-17.8,0.1c-1.1,0-2.2,0.1-3.3,0.2
		c0,43.4,0,86.5,0,129.7c6.7,0,13.2,0,20.1,0c0-33.8,0-67.4,0-101.6c2,3.3,3.5,6,5.1,8.6c7.6,12,15.2,23.9,22.7,35.9
		c11.6,18.3,23.2,36.6,34.7,54.9c1.1,1.7,2.1,2.5,4.2,2.4c5.8-0.1,11.7,0,17.5-0.1c0.9,0,1.8-0.2,2.8-0.3c0-43.3,0-86.4,0-129.6
		c-6.7,0-13.2,0-20.4,0c0.2,33.3-0.3,66.4,0.4,99.8c-0.4-0.5-0.6-0.7-0.8-0.9C201.8,273.7,193.5,260.3,185.1,246.9z"/>
	<path d="M102.7,307.9c0-7-5.7-12.4-12.9-12.4c-7.2,0-12.9,5.7-12.8,12.5c0.1,6.7,5.8,12.1,13,12C97.1,320,102.6,314.8,102.7,307.9z
		"/>
	<path d="M303.7,206.5c7.8,0,15.5,0,23.5,0c0-6.3,0-12.2,0-18c-4.6-0.7-66-0.5-68.1,0.2c0,43,0,86.1,0,129.1
		c4.1,0.8,68.8,0.5,70.9-0.2c0-5.8,0-11.6,0-17.8c-4.3,0-8.5,0-12.6,0c-4.1,0-8.1,0-12.2,0c-4.2,0-8.3,0-12.5,0
		c-4.1,0-8.2,0.1-12.3-0.1c0-12.9,0-25.4,0-38.3c4.9,0,9.7,0,14.5,0c4.8,0,9.6,0,14.4,0c4.7,0,9.5,0.1,14.4-0.1c0-6.2,0-12,0-18.4
		c-14.6,0-28.8,0-43.3,0c0-12.3,0-24.2,0-36.6C288.1,206.5,295.9,206.5,303.7,206.5z"/>
	<path d="M337.6,188.6c0,5.8,0,11.6,0,17.8c6.1,0,12,0,17.9,0c6,0,12-0.1,18.3,0.1c0,37.4,0,74.3,0,111.4c7.1,0,13.8,0,21.1,0
		c0-37.2,0-74.1,0-111.3c1.6-0.1,2.8-0.2,4-0.2c9.5,0,19,0,28.4,0c1.2,0,2.4-0.1,3.5-0.2c0.6-3.9,0.5-15.7-0.1-17.9
		C425.8,187.6,339.7,187.9,337.6,188.6z"/>
</g>
</svg>
