<?xml version="1.0" encoding="utf-8"?>
<!-- Generator: Adobe Illustrator 26.0.2, SVG Export Plug-In . SVG Version: 6.00 Build 0)  -->
<svg version="1.1" id="Layer_2" xmlns="http://www.w3.org/2000/svg" xmlns:xlink="http://www.w3.org/1999/xlink" x="0px" y="0px"
	 viewBox="0 0 500 500" style="enable-background:new 0 0 500 500;" xml:space="preserve">
<path d="M250.1,77.3l157.4,81v176.2L250,427.2L92.6,334.6l1.2-175.7L250.1,77.3 M250,43.5L64,140.7l-1.5,211L250,462l187.5-110.3
	V140L250,43.5L250,43.5z"/>
<path d="M149,368.1c0,0,24,3.1,24-18.9s0-174.9,0-174.9h28v177.3c0,0,2.2,29.8-16.9,36.9C165,395.7,149,368.1,149,368.1z"/>
<path d="M367.8,225.8c0,0-0.8-40.2-29.3-49.8s-78.3-8.3-94.3,1.8c-16,10.2-32,36.8-16.7,62.3s59.3,22.2,80.5,24.8
	s51.5,15.3,27.5,35.3s-76.2,6.3-85-4.2c-8.8-10.5-6.3-20-6.3-20l-28.5,0.3c0,0-6.2,40.2,40.2,55.2s91.2-3.8,102.8-11.5
	c11.7-7.7,22.3-32.3,10-59.5c-12.3-27.2-76.8-21.5-93.5-27.5c-16.7-6-21.7-8.3-22-17.5c-0.3-9.2,6.8-20.3,29.2-20.3
	c22.3,0,55.8-1.2,58,30.2L367.8,225.8z"/>
</svg>
