<?xml version="1.0" encoding="utf-8"?>
<!-- Generator: Adobe Illustrator 26.0.2, SVG Export Plug-In . SVG Version: 6.00 Build 0)  -->
<svg version="1.1" id="Isolation_Mode" xmlns="http://www.w3.org/2000/svg" xmlns:xlink="http://www.w3.org/1999/xlink" x="0px"
	 y="0px" viewBox="0 0 500 500" style="enable-background:new 0 0 500 500;" xml:space="preserve">
<g>
	<g>
		<path d="M440,435.6H60V64.4h380V435.6z M90,405.6h320V94.4H90V405.6z"/>
	</g>
</g>
<g>
	<g>
		<g>
			<path d="M183.4,255.5c-1.7,0-3.4,0-5.1,0c-1.3,0-2.5,0-3.8,0l-7,0l0-7.9c0-6,0-11.9,0-17.9l0-6.1l0-6.3c0-5.9,0-12,0-18l0-7.7
				l7.4,0c2.7,0.1,5.5,0.1,8.2,0.1c6.4,0,13,0,19.6,1.1c12.5,2.1,18.8,8.6,21.8,13.6c4.7,7.8,5.4,18.5,2,28.7
				c-2.5,7.5-8.2,13-17.1,16.5C200.8,255,192,255.5,183.4,255.5z M177.6,245.4c0.3,0,0.6,0,0.9,0c9.7,0.1,18.8,0.2,27.4-3.2
				c6-2.4,9.7-5.8,11.3-10.4c2.5-7.4,2.1-15-1.1-20.4c-2.8-4.7-7.8-7.7-14.9-8.9c-5.7-1-11.7-1-17.9-1c-1.8,0-3.7,0-5.6,0
				c0,5.2,0,10.5,0,15.7l0,6.3l0,6.1C177.6,234.9,177.6,240.2,177.6,245.4z"/>
		</g>
		<g>
			<path d="M133.2,338.4v-8.5c0.1-47.1,0.1-97.8,0-159.7v-8.5l7.9,0.1c6.4-0.1,12.8-0.2,19.2-0.3c11.6-0.2,23.6-0.4,35.4-0.4
				c10.7,0,21.3,2.2,31.4,6.5c22.4,9.5,35.7,30.1,35.6,55c-0.1,19.4-6.2,34.3-18.6,45.5c-10.1,9.1-22.7,14.5-37.4,16.1
				c-7,0.7-14,0.9-20.8,1c-2.8,0.1-5.6,0.1-8.4,0.2l0,11.9c0,12.1,0,25.2,0,36.1l0,5l-5,0c-3,0-6.5,0-10.1,0c-7.2,0-14.6-0.1-20.3,0
				L133.2,338.4z M151.3,328.3c3.6,0,7.3,0,11,0c1.7,0,3.5,0,5.1,0c0-9.8,0-20.8,0-31.1l0-21.9h5c0.6,0,1.2,0,1.8,0
				c0.9,0,1.7,0,2.5,0c3-0.1,6-0.2,9-0.2c6.6-0.1,13.4-0.2,20-0.9c12.6-1.3,23.3-5.9,31.8-13.5c10.3-9.4,15.2-21.5,15.3-38.1
				c0.1-21.1-10.6-37.7-29.5-45.7c-8.8-3.7-18.1-5.7-27.5-5.7c-11.7,0-23.7,0.2-35.2,0.4c-5.8,0.1-11.5,0.2-17.3,0.3
				c0,60.5,0,110.4,0,156.6C145.7,328.4,148.4,328.3,151.3,328.3z"/>
		</g>
	</g>
	<g>
		<path d="M310.2,338.8c-0.1,0-0.3,0-0.4,0c-15.3-0.1-27.4-2.1-38.2-6.6c-5.8-2.4-6.8-6.9-6.7-10.2c0.1-2.6,0.1-5.2,0.1-8
			c0-1.2,0-2.4,0-3.6v0c0-1.3,0-2.6,0-3.9c0-2.9,0-5.9,0-8.9l0.1-12.1l10.4,6.1c11.7,6.4,24.4,9.3,37.8,8.6c2.8-0.1,5.6-0.7,7.9-1.6
			c0.9-0.4,1.5-0.9,1.6-1.6c0.1-0.7-0.2-1.4-0.9-2c-1.7-1.5-3.9-2.9-7-4.4c-3.3-1.6-6.8-3.1-10.2-4.6c-5.1-2.2-10.4-4.6-15.5-7.2
			c-10.8-5.5-18.1-13.5-21.6-23.7c-6.7-19.3,1.8-40.6,20.4-50.5c8-4.3,17.1-6.6,27-7c10.4-0.4,24.1-0.2,37.8,4.2
			c5.3,1.7,7.9,5.4,7.7,10.9c-0.1,4.9-0.1,10-0.1,14.8c0,2.3,0,4.7,0,7l-0.1,12.7l-11.3-5.3c-8.2-4-17.7-6.1-29.1-6.5
			c-2.8-0.1-5.7,0.4-9,0.9c-2.1,0.3-2.5,1.3-2.7,2.3c-0.1,0.5-0.3,1.5,1.3,2.4c4,2.3,8.2,4.3,12.6,6.4c1.1,0.5,2.1,1,3.2,1.5
			c2.3,1.1,4.8,2.2,7.1,3.3c4.5,2,9.2,4.2,13.7,6.7c14.7,8.2,21.8,21.2,20.7,37.8c-1.1,16.1-9.7,28.4-24.6,35.7
			C333.1,336.8,323,338.8,310.2,338.8z M275,322.8c0.1,0.1,0.3,0.1,0.5,0.2c9.5,3.9,20.5,5.8,34.4,5.8c11.4,0,20.2-1.7,27.8-5.4
			c11.9-5.8,18.1-14.7,19-27.4c0.9-12.8-4.2-22.1-15.5-28.4c-4.1-2.3-8.4-4.2-13-6.3c-2.4-1.1-4.9-2.2-7.3-3.4c-1-0.5-2.1-1-3.2-1.5
			c-4.4-2.1-8.9-4.2-13.3-6.7c-4.9-2.8-7.2-7.8-6.1-13.2c1.1-5.5,5.1-9.2,10.8-10.1c3.7-0.6,7.3-1.1,11-1
			c11.5,0.4,21.4,2.4,30.2,6.1c0-1.3,0-2.7,0-4c0-5-0.1-10.1,0.1-15.2c0-0.4,0-0.7,0-0.8c-0.1-0.1-0.4-0.2-0.7-0.3
			c-12.2-3.9-24.8-4.1-34.4-3.7c-8.5,0.3-15.8,2.2-22.6,5.8c-14.2,7.6-20.7,23.8-15.6,38.4c2.7,7.8,8.2,13.8,16.7,18.1
			c4.8,2.5,10,4.7,15,6.9c3.4,1.5,7,3.1,10.5,4.7c4,1.9,7,3.8,9.4,6c3.3,3,4.8,7.2,4.1,11.2c-0.7,4.1-3.6,7.5-7.8,9.1
			c-3.3,1.3-7.2,2.1-11.1,2.3c-13.6,0.6-26.7-2-38.8-7.7c0,1.3,0,2.6,0,3.9c0,1.3,0,2.6,0,4c0,1.2,0,2.3,0,3.5
			c0,2.8,0.1,5.7-0.1,8.6C275,322.6,275,322.7,275,322.8z"/>
	</g>
</g>
</svg>
