<?xml version="1.0" encoding="utf-8"?>
<!-- Generator: Adobe Illustrator 26.0.2, SVG Export Plug-In . SVG Version: 6.00 Build 0)  -->
<svg version="1.1" id="Isolation_Mode" xmlns="http://www.w3.org/2000/svg" xmlns:xlink="http://www.w3.org/1999/xlink" x="0px"
	 y="0px" viewBox="0 0 500 500" style="enable-background:new 0 0 500 500;" xml:space="preserve">
<g>
	<path d="M288,331.8l0-7.3c0-0.6,0-1.1,0-1.6l0-0.5c0-7.8,0-15.7,0-23.5c0-18.8,0-38.2,0-57.2c0-8.6-0.2-17.4-0.4-25.8l-0.1-6.4
		c0-1.6-0.2-3.2-0.3-4.9c0-0.6-0.1-1.1-0.1-1.7l-0.9-7.7l7.9,0c8.7,0,17.5,0,26.2,0c4.8,0,7.8,2.2,9.1,6.8c0.4,1.4,0.8,2.9,1,4.5
		c7.2-6,15.2-10.2,23.8-12.4c4-1,8.3-1.6,12.3-1.6h8.1l0,8c0,3.7,0,7.4,0,11.1l0,17.4l0,0.3c0,0.4,0,1,0,1.6l-0.4,6.5l-6.3-0.2
		c-0.5,0-2,0-2.9,0c-9.1,0-17.8,1.8-25.9,5.3c-2,0.9-3.8,2-5.5,3.5c0,5.9,0,11.8,0,17.5l0,59.8l0,8.5l-21.6,0l-15.6,0
		c-0.3,0-0.6,0-0.9,0L288,331.8z M297.3,205c0.1,1.4,0.2,2.7,0.2,4.2l0.1,6.4c0.2,8.5,0.4,17.3,0.4,26c0.1,19.1,0,38.5,0,57.3
		c0,7.6,0,15.3,0,22.9l25.6,0l0-58.3c0-5.8,0-11.8,0-17.7c0-2.8,1-5.2,3.1-7.1c2.6-2.3,5.4-4.1,8.4-5.4c9.3-4,19.2-6.1,29.5-6.2
		l0-15.6c0-3,0-6.1,0-9.1c-2.6,0.1-5.4,0.5-8,1.2c-9.3,2.4-17.5,7.3-24.9,15.1c-0.3,0.3-0.6,0.6-0.8,0.9l-2.8,3l-6.5-2.6l-0.3-4.9
		c-0.2-4-0.7-7.2-1.5-10.1C312.4,205,304.8,205,297.3,205z"/>
</g>
<g>
	<g>
		<g>
			<path d="M440,435.6H60V64.4h380V435.6z M90,405.6h320V94.4H90V405.6z"/>
		</g>
	</g>
</g>
<g>
	<g>
		<g>
			<g>
				<path d="M195.7,248.5c-1.7,0-3.4,0-5.1,0c-1.3,0-2.5,0-3.8,0l-7,0l0-7.9c0-6,0-11.9,0-17.9l0-6.1l0-6.3c0-5.9,0-12,0-18l0-7.7
					l7.4,0c2.7,0.1,5.5,0.1,8.2,0.1c6.4,0,13,0,19.6,1.1c12.5,2.1,18.8,8.6,21.8,13.6c4.7,7.8,5.4,18.5,2,28.7
					c-2.5,7.5-8.2,13-17.1,16.5C213.2,248,204.4,248.5,195.7,248.5z M189.9,238.4c0.3,0,0.6,0,0.9,0c9.7,0.1,18.8,0.2,27.4-3.2
					c6-2.4,9.7-5.8,11.3-10.4c2.5-7.4,2.1-15-1.1-20.4c-2.8-4.7-7.8-7.7-14.9-8.9c-5.7-1-11.7-1-17.9-1c-1.8,0-3.7,0-5.6,0
					c0,5.2,0,10.5,0,15.7l0,6.3l0,6.1C189.9,227.9,189.9,233.2,189.9,238.4z"/>
			</g>
		</g>
		<g>
			<g>
				<path d="M145.5,331.4v-8.5c0.1-47.1,0.1-97.8,0-159.7v-8.5l7.9,0.1c6.4-0.1,12.8-0.2,19.2-0.3c11.6-0.2,23.6-0.4,35.4-0.4
					c10.7,0,21.3,2.2,31.4,6.5c22.4,9.5,35.7,30.1,35.6,55c-0.1,19.4-6.2,34.3-18.6,45.5c-10.1,9.1-22.7,14.5-37.4,16.1
					c-7,0.7-14,0.9-20.8,1c-2.8,0.1-5.6,0.1-8.4,0.2l0,11.9c0,12.1,0,25.2,0,36.1l0,5l-5,0c-3,0-6.5,0-10.1,0
					c-7.2,0-14.6-0.1-20.3,0L145.5,331.4z M163.6,321.3c3.6,0,7.3,0,11,0c1.7,0,3.5,0,5.1,0c0-9.8,0-20.8,0-31.1l0-21.9h5
					c0.6,0,1.2,0,1.8,0c0.9,0,1.7,0,2.5,0c3-0.1,6-0.2,9-0.2c6.6-0.1,13.4-0.2,20-0.9c12.6-1.3,23.3-5.9,31.8-13.5
					c10.3-9.4,15.2-21.5,15.3-38.1c0.1-21.1-10.6-37.7-29.5-45.7c-8.8-3.7-18.1-5.7-27.5-5.7c-11.7,0-23.7,0.2-35.2,0.4
					c-5.8,0.1-11.5,0.2-17.3,0.3c0,60.5,0,110.4,0,156.6C158,321.4,160.7,321.3,163.6,321.3z"/>
			</g>
		</g>
	</g>
</g>
</svg>
