<?xml version="1.0" encoding="utf-8"?>
<!-- Generator: Adobe Illustrator 26.0.2, SVG Export Plug-In . SVG Version: 6.00 Build 0)  -->
<svg version="1.1" id="Layer_1" xmlns="http://www.w3.org/2000/svg" xmlns:xlink="http://www.w3.org/1999/xlink" x="0px" y="0px"
	 viewBox="0 0 694 156.7" style="enable-background:new 0 0 694 156.7;" xml:space="preserve">
<style type="text/css">
	.st0{fill:#414042;}
</style>
<g id="Layer_1_00000180363279830253087300000000591822544661685911_">
</g>
<g id="Isolation_Mode">
	<g>
		<path class="st0" d="M45.9,10.6v146.1H0V10.6H45.9z M29.6,10.6h31.9c14.3,0,26,2.2,35,6.5s15.6,10.2,19.8,17.7s6.4,16.1,6.4,25.9
			c0,9.6-2.1,18.2-6.4,25.8c-4.2,7.6-10.9,13.5-19.8,17.8c-9,4.3-20.6,6.5-35,6.5H29.6V76.4h27.8c3.9,0,7.1-0.5,9.6-1.6
			c2.5-1,4.4-2.6,5.7-4.7c1.3-2.1,2-4.5,2-7.3c0-2.9-0.7-5.4-2-7.4s-3.2-3.5-5.7-4.6c-2.5-1-5.7-1.6-9.6-1.6H29.6
			C29.6,49.2,29.6,10.6,29.6,10.6z M89.7,94.1l41.7,62.6H78.2L42.7,94.1L89.7,94.1L89.7,94.1z"/>
		<path class="st0" d="M194.9,117.2l3.5,10.4l-15.9,29h-52.2L212.8,0l82.5,156.6h-52.2L227.7,129l3.1-11.9l-18-40.3L194.9,117.2z
			 M174.7,104.9h77.2v33h-77.2V104.9z"/>
		<path class="st0" d="M356.7,10.6v146.1h-47.8V10.6H356.7z M340.6,156.7V117h23.6c4,0,8.1-0.3,12.3-1c4.2-0.7,8-2.2,11.5-4.4
			c3.5-2.2,6.3-5.6,8.5-10c2.2-4.5,3.2-10.4,3.2-18c0-7.5-1.1-13.5-3.2-18c-2.2-4.5-5-7.8-8.5-10s-7.3-3.7-11.5-4.4s-8.3-1-12.3-1
			h-23.6V10.5h25.7c17,0,31.6,2.9,43.7,8.8c12.2,5.8,21.5,14.2,28,25c6.5,10.9,9.7,23.9,9.7,39.2c0,15.2-3.2,28.2-9.7,39.1
			s-15.8,19.3-28,25.2c-12.2,5.8-26.8,8.8-43.7,8.8h-25.7V156.7z"/>
		<path class="st0" d="M514.5,10.6v107.5H574v38.6H468.6V10.6H514.5z"/>
		<path class="st0" d="M632.4,10.6v146.1h-43.8V10.6H632.4z M620.3,10.6H694v36.5h-73.7V10.6z M620.3,63.8h69.5v35.5h-69.5V63.8z
			 M620.3,120.1H694v36.5h-73.7V120.1z"/>
	</g>
</g>
</svg>
