<?xml version="1.0" encoding="utf-8"?>
<!-- Generator: Adobe Illustrator 26.0.2, SVG Export Plug-In . SVG Version: 6.00 Build 0)  -->
<svg version="1.1" id="Layer_1" xmlns="http://www.w3.org/2000/svg" xmlns:xlink="http://www.w3.org/1999/xlink" x="0px" y="0px"
	 viewBox="0 0 724.8 153.8" style="enable-background:new 0 0 724.8 153.8;" xml:space="preserve">
<style type="text/css">
	.st0{fill:#414042;}
</style>
<g id="Layer_1_00000168114735157752015870000006959682700377302921_">
</g>
<g id="Isolation_Mode">
	<g>
		<path class="st0" d="M48.3,0v153.7H0V0H48.3z M31.2,0h33.6c15.1,0,27.3,2.3,36.8,6.8c9.4,4.5,16.4,10.8,20.9,18.7s6.7,17,6.7,27.2
			c0,10.1-2.2,19.1-6.7,27.1S111.1,94,101.6,98.6c-9.4,4.5-21.7,6.8-36.8,6.8H31.2V69.2h29.2c4.1,0,7.5-0.5,10.1-1.6s4.6-2.7,6-4.9
			s2.1-4.8,2.1-7.7c0-3.1-0.7-5.7-2.1-7.8c-1.4-2.1-3.4-3.7-6-4.8s-6-1.6-10.1-1.6H31.2V0z M94.4,87.9l43.9,65.9h-56L45,87.9H94.4z"
			/>
		<path class="st0" d="M222.9,0v153.7h-49.4V0H222.9z"/>
		<path class="st0" d="M318.3,0v113.1h62.6v40.6H270V0H318.3z"/>
		<path class="st0" d="M471.9,0v153.7h-46.1V0H471.9z M459.2,0h77.5v38.4h-77.5V0z M459.2,56h73.1v37.3h-73.1V56z M459.2,115.3h77.5
			v38.4h-77.5V115.3z"/>
		<path class="st0" d="M724.8,0l-55.3,93.3v60.4h-49.4V93.8L564.5,0h56l24.2,49.6L668.9,0H724.8z"/>
	</g>
</g>
</svg>
