
<svg version="1.1" id="Layer_1" xmlns="http://www.w3.org/2000/svg" xmlns:xlink="http://www.w3.org/1999/xlink" x="0px" y="0px"
	 viewBox="0 0 500 500" style="enable-background:new 0 0 500 500;" xml:space="preserve">

<g>
	<path class="st0" d="M394,250.6c0,44-0.1,88.1,0.1,132.1c0,8.8-3.1,15.9-9.1,22c-9.8,10-22.2,16-35,21
		c-26.1,10-53.3,14.3-81.1,15.9c-29.7,1.7-59.1-0.3-88.1-6.9c-17.1-3.9-33.9-9-49-18.2c-7-4.3-13.4-9.7-19.4-15.4
		c-5.1-4.8-7.1-11.4-7.1-18.5c0.1-88.8,0.1-177.7,0-266.5c0-7.8,2.8-14.2,8-19.8c10.1-10.9,23.1-17.3,36.6-22.5
		c27.1-10.4,55.3-14.8,84.1-16.1c32.3-1.5,64.1,1.3,95.3,10c16.4,4.6,32.3,10.6,46.3,20.7c4.2,3.1,8.1,6.8,11.6,10.7
		c4.7,5.2,6.8,11.5,6.8,18.7C393.9,162,394,206.3,394,250.6z M248.4,78c-20.7-0.2-42.4,1.6-63.8,7c-11.5,2.9-22.9,6.2-32.2,14.1
		c-7.5,6.3-7.5,14.1-0.2,20.6c5.9,5.2,12.9,8.2,20.2,10.7c22.8,7.6,46.4,10.1,70.2,10.6c26.6,0.5,53.1-1.4,78.8-8.9
		c9-2.6,17.8-5.8,25-11.9c8-6.9,8-14.5-0.1-21.3c-7.5-6.3-16.5-9.5-25.8-12.1C297.5,80,273.7,77.8,248.4,78z M269.2,299.3
		c0.4-0.5,0.5-0.8,0.7-0.9c14.9-8.4,20.4-21.7,20.1-38.2c-0.5-24.3-19.8-41.8-46.9-36.6c-18.6,3.6-30.2,18.2-31.1,38.3
		c-0.9,21.4,12.1,37.2,33.3,40.7c1.6,0.3,3.3,1.2,4.4,2.4c4.5,4.6,8.7,9.5,13.2,14c1.3,1.2,3.4,2.2,5.2,2.2
		c7.5,0.2,15.1,0.1,22.6,0.1c0.9,0,1.8-0.2,3.5-0.5C285.5,313.3,277.4,306.3,269.2,299.3z M202.8,244.9c0-5.9,0.1-11.5-0.1-17
		c0-1-1.3-2.5-2.3-2.8c-12-3.1-24.1-3.9-35.9,0.8c-9.3,3.7-14.9,12.2-14.6,22.1c0.3,10.6,6.6,17,15.6,21.3c3.9,1.8,7.9,3.4,11.7,5.3
		c2.5,1.3,4.1,3.5,3.4,6.5c-0.7,2.9-3.2,4.2-5.8,3.9c-5.4-0.8-10.8-1.9-16.1-3.3c-2.5-0.7-4.8-2.3-7.7-3.8c0,6.7-0.1,12.7,0.1,18.7
		c0,1,1.2,2.6,2.2,2.9c13.7,4.5,27.5,5.4,40.8-0.8c15.6-7.3,17.4-27.9,3.6-38.2c-3.8-2.8-8.3-4.6-12.6-6.8c-2.2-1.2-4.8-1.8-6.7-3.4
		c-1.5-1.3-3.4-3.9-3-5.3c0.5-1.8,3-3.8,5-4.2c3.2-0.6,6.8-0.4,10.1,0.3C194.4,241.9,198.3,243.4,202.8,244.9z M324.5,253.6
		c0-8.8-0.1-17.6,0-26.4c0-2.4-0.6-3.4-3.2-3.3c-5.8,0.1-11.6,0.1-17.4,0c-2.3,0-3,0.8-3,3.1c0.1,23.9,0.1,47.8,0,71.7
		c0,2.3,0.9,3,3.1,3c14.6-0.1,29.2-0.1,43.8,0c2.5,0,3.3-1.1,3.2-3.4c-0.1-3.6-0.2-7.3,0-10.9c0.2-3.3-0.8-4.5-4.2-4.4
		c-6,0.2-12.1-0.1-18.1,0.1c-3.2,0.1-4.5-0.8-4.4-4.2C324.7,270.4,324.5,262,324.5,253.6z"/>
	<path class="st0" d="M237.4,262.4c0.3-4.9,0.6-8.2,2.3-12.1c2.2-5.2,6.6-7.7,12.3-7.5c5.5,0.2,8.9,3.2,10.9,8
		c3.2,7.7,3.4,15.7,0.3,23.5c-2.1,5.5-6.8,8.6-12.1,8.5c-5.9-0.1-10.1-3.1-12-8.6C237.8,270.5,237.6,266.8,237.4,262.4z"/>
</g>
</svg>
