<?xml version="1.0" encoding="utf-8"?>
<!-- Generator: Adobe Illustrator 26.0.2, SVG Export Plug-In . SVG Version: 6.00 Build 0)  -->
<svg version="1.1" id="Layer_1" xmlns="http://www.w3.org/2000/svg" xmlns:xlink="http://www.w3.org/1999/xlink" x="0px" y="0px"
	 viewBox="0 0 100 100" style="enable-background:new 0 0 100 100;" xml:space="preserve">
<style type="text/css">
	.st0{fill:#414042;}
	.st1{fill:#FFFFFF;}
</style>
<rect class="st0" width="100" height="100"/>
<g>
	<g id="XMLID_00000105385995559738326560000007451582007970791812_">
		<path class="st1" d="M75,73c0,1.2,0,2.5,0,3.7c-1.5,0.1-3,0.2-4.5,0.2c0-1.3,0-2.6,0-3.9c0.1,0,0.3,0,0.4,0c1.3-0.1,2.7-0.1,4-0.2
			C75,72.9,75,73,75,73z"/>
		<path class="st1" d="M74.5,58.5c0.2,4.8,0.3,9.6,0.4,14.3c-1.3,0.1-2.7,0.2-4,0.2c-0.1,0-0.3,0-0.4,0c0-0.7,0-1.4,0-2.1
			c-0.1-9.6-0.2-19.2-0.6-28.8c-0.2-4.8-0.5-9.7-0.8-14.5c0-0.2,0-0.4,0-0.6c0.2,0,0.3,0,0.5,0c1,0.1,2,0.3,3,0.3
			c0.1,0.8,0.1,1.6,0.2,2.4C73.5,39.3,74.1,48.9,74.5,58.5z"/>
		<path class="st1" d="M72.3,24c0.1,1.1,0.2,2.3,0.3,3.4c-1-0.1-2-0.2-3-0.3c-0.2,0-0.3,0-0.5,0c-0.1-1.1-0.1-2.2-0.2-3.4
			c0.6,0,1.1,0.1,1.7,0.2C71.1,23.9,71.7,23.9,72.3,24z"/>
		<path class="st1" d="M70.5,76.9c-0.4,0-0.9,0-1.3,0.1c-9.3,0.4-18.6,0.2-27.9,0c-4-0.1-8-0.2-12-0.4c0.4-0.3,0.7-0.8,0.7-1.4
			c0-0.5,0-0.9,0-1.4c8.9-0.2,17.9-0.3,26.8-0.4c4.6-0.1,9.1-0.1,13.7-0.4C70.5,74.4,70.5,75.7,70.5,76.9z"/>
		<path class="st1" d="M68.9,23.6c0.1,1.1,0.1,2.2,0.2,3.4c-1.8-0.2-3.6-0.4-5.4-0.5c-6.9-0.6-13.9-0.8-20.9-0.9
			c-3.5,0-6.9,0-10.4,0.1c-1.4,0-2.9,0.1-4.3,0.1c0-0.6,0-1.3-0.1-1.9c1.9-0.2,3.8-0.4,5.7-0.6c7-0.5,14-0.7,21-0.6
			c3.5,0.1,7.1,0.3,10.6,0.5C66.5,23.4,67.7,23.5,68.9,23.6z"/>
		<path class="st1" d="M56.4,42.2c0.9,0.1,2,0,2.9,0.3c0.7,0.2,1.2,0.9,1.1,1.7c-0.1,0.8-0.7,1.3-1.5,1.3c-0.9,0.1-1.8-0.2-2.7-0.2
			c-0.9-0.1-1.8-0.2-2.7-0.3c-0.9-0.1-1.9-0.2-2.8-0.3c-0.4-0.1-0.8-0.1-1.2-0.2c-0.5-0.1-0.9-0.1-1.3-0.4c-0.5-0.3-0.5-0.9,0-1.3
			c0.4-0.3,0.9-0.3,1.4-0.3c0.4-0.1,0.9-0.1,1.3-0.2c0.9-0.1,1.8-0.1,2.7-0.1C54.6,42.1,55.5,42.2,56.4,42.2z"/>
		<path class="st1" d="M45,36.4c-0.1,0-0.2-0.1-0.2-0.1c0,0,0.1,0,0.1-0.1C44.9,36.3,44.9,36.3,45,36.4z"/>
		<path class="st1" d="M44.9,36.2C44.9,36.2,44.9,36.2,44.9,36.2c-0.1,0-0.2-0.1-0.2-0.1c0,0,0,0,0,0c0,0,0,0-0.1-0.1
			C44.7,36.1,44.8,36.1,44.9,36.2z"/>
		<path class="st1" d="M44.7,36.1c0.1,0,0.1,0.1,0.2,0.1c0,0,0,0-0.1,0C44.8,36.2,44.7,36.2,44.7,36.1z"/>
		<path class="st1" d="M44.1,36c0.2,0,0.4,0.1,0.5,0.1c0,0,0,0,0,0c0.1,0,0.1,0.1,0.1,0.1c0,0-0.1,0-0.1,0.1
			c-0.3-0.1-0.5-0.2-0.8-0.3C44,36,44.1,36,44.1,36z"/>
		<path class="st1" d="M44.7,36.3c-0.7,0.4-1.4,0.8-2.1,1.2c0,0,0-0.1-0.1-0.1c0,0.1,0,0.1,0,0.1c0,0,0,0,0,0
			c0.1,0.3,0.2,0.6,0.4,0.9c-0.5-0.5-1-1.1-1.6-1.6c0.1,0,0.2-0.1,0.3-0.1c0.9-0.5,1.9-1,2.9-0.6c0,0,0,0,0.1,0.1
			C44.5,36,44.3,36,44.1,36c0,0-0.1,0-0.1,0C44.2,36.1,44.5,36.2,44.7,36.3z"/>
		<path class="st1" d="M42.5,37.4c0,0,0,0.1,0.1,0.1c0,0,0,0,0,0C42.5,37.5,42.5,37.4,42.5,37.4z"/>
		<path class="st1" d="M42.6,37.5c0.7-0.4,1.4-0.8,2.1-1.2c0.1,0,0.2,0.1,0.2,0.1c-0.1-0.1-0.1-0.1-0.2-0.2c0,0,0,0,0.1,0
			c0.5,0.3,0.9,0.7,0.8,1.3c-0.1,0.8-0.4,1.4-1,1.8c-0.4,0.2-0.8,0.4-1.2,0.6c-0.8,0.4-1.5,0.8-2.3,1.2c-0.8,0.4-1.5,0.7-2.3,1.1
			c-0.4,0.2-0.8,0.4-1.2,0.6c-0.6,0.3-1.1,0.4-1.7,0.4c-0.7,0.1-1.3-0.5-1.5-1c-0.3-0.6-0.1-1.3,0.3-1.8c0.7-0.7,1.5-1.1,2.4-1.5
			c0.7-0.4,1.5-0.7,2.2-1.1c0.7-0.3,1.4-0.7,2-1c0.5,0.5,1.1,1,1.6,1.6C42.8,38.1,42.7,37.8,42.6,37.5z"/>
		<path class="st1" d="M35.2,29.6c3.5,1.4,6.6,3.9,9.3,6.5c-1-0.4-2,0.2-2.9,0.6c-0.1,0-0.2,0.1-0.3,0.1c-0.8-0.8-1.7-1.6-2.6-2.3
			c-1.4-1.2-2.9-2.3-4.3-3.6C33.9,30.4,34.5,29.3,35.2,29.6z"/>
		<path class="st1" d="M30,75.2c0,0.6-0.3,1.1-0.7,1.4c-0.7,0-1.4,0-2.2-0.1c-0.4-0.3-0.6-0.8-0.6-1.3c0-0.4-0.1-0.9-0.1-1.3
			c0.8,0,1.6,0,2.3-0.1c0.4,0,0.9,0,1.3,0C30,74.3,30,74.7,30,75.2z"/>
		<path class="st1" d="M30,73.8c-0.4,0-0.9,0-1.3,0c-0.8,0-1.5,0-2.3,0.1C26,70,25.7,66,25.6,62.1c-0.4-7.7-0.7-15.5-0.5-23.3
			c0.1-3.9,0.2-7.7,0.4-11.6c0-0.4,0-0.8,0.1-1.3c0.9,0,1.7-0.1,2.6-0.1c0,1,0,2,0.1,3c0.1,7.8,0.4,15.5,0.8,23.3
			C29.3,59.3,29.9,66.6,30,73.8z"/>
		<path class="st1" d="M28,24c0,0.6,0,1.3,0.1,1.9c-0.9,0-1.7,0.1-2.6,0.1c0-0.6,0.1-1.2,0.1-1.7C26.4,24.1,27.2,24.1,28,24z"/>
	</g>
</g>
</svg>
