<?xml version="1.0" encoding="utf-8"?>
<!-- Generator: Adobe Illustrator 26.0.2, SVG Export Plug-In . SVG Version: 6.00 Build 0)  -->
<svg version="1.1" xmlns="http://www.w3.org/2000/svg" xmlns:xlink="http://www.w3.org/1999/xlink" x="0px" y="0px"
	 viewBox="0 0 500 500" style="enable-background:new 0 0 500 500;" xml:space="preserve">
<g id="Layer_1">
</g>
<g id="Layer_2">
	<g>
		<g>
			<g>
				<polygon points="150.9,243.9 83.8,225.3 69.1,60.6 232.6,60.5 223.6,161.3 213.6,160.4 221.7,70.5 80.1,70.6 93.2,217.5 
					150.9,233.5 179.4,225.6 182,235.2 				"/>
			</g>
			<g>
				<polygon points="150.9,208.4 109.3,197 106.6,162.2 130.9,162.2 132,178.1 150.9,183.2 169.9,177.9 171.3,157.5 105.8,157.5 
					100.3,95 201.5,95 199.4,119 126.8,119 127.9,133.6 197.9,133.5 195.5,161.1 190.6,160.7 192.4,138.5 123.3,138.6 121.4,114 
					194.8,114 196,100 105.8,100 110.4,152.5 176.7,152.5 174.6,181.8 150.9,188.4 127.3,182 126.3,167.2 112,167.2 114,193.1 
					150.9,203.3 177.2,195.9 178.5,200.7 				"/>
			</g>
		</g>
		<g>
			<g>
				<polygon points="250,339.3 183,320.7 168.3,155.9 331.8,155.9 322.4,260.6 312.4,259.7 320.8,165.9 179.2,165.9 192.3,312.9 
					250,328.9 276.6,321.5 279.2,331.2 				"/>
			</g>
			<g>
				<polygon points="250.1,303.7 208,292.1 205,257.8 228.2,257.8 230.3,272.8 250.1,277 268.3,273.6 270.1,252.4 204.6,252.4 
					201.6,231.1 237.1,215.3 201.2,215.3 198,191.4 299.4,191.4 299.4,214 265.7,228 296.3,228 293.4,260.4 288.4,260 290.9,233 
					240.5,233 294.4,210.7 294.4,196.4 203.7,196.4 205.6,210.3 260.6,210.3 207.1,234.1 209,247.4 275.5,247.4 272.9,277.8 
					250,282.1 225.8,277 223.9,262.8 210.5,262.8 212.7,288.2 250,298.5 274.2,290.8 275.7,295.6 				"/>
			</g>
		</g>
		<g>
			<g>
				<path d="M348.3,438.6L281.2,420l-14.7-164.8l163.5-0.1L415.2,420L348.3,438.6z M290.6,412.2l57.7,16l57.6-16l13.2-147l-141.7,0
					L290.6,412.2z"/>
			</g>
			<g>
				<path d="M346.6,402.5l-40-10.9l-2.8-34.9l17.3,2.9l0.5,10.8l6.7,2l-2.8-82.6h21V402.5z M311.3,387.7l30.3,8.3V294.8h-10.8
					l2.9,84.3l-16.7-4.9l-0.5-10.3l-7-1.2L311.3,387.7z"/>
			</g>
			<g>
				<path d="M349,402.5l0.4-25.1l22.4-5.4l1.6-21l-24.4,1.6v-62.8h49.8l-1.9,23.5h-25.9l-0.6,14.9h24.8l-5.4,63.2L349,402.5z
					 M354.3,381.3l-0.2,14.6l31.2-8.4l4.7-54.3h-24.6l0.9-24.9h26.1l1.1-13.5H354v52.5l24.8-1.6l-2.4,30.4L354.3,381.3z"/>
			</g>
		</g>
	</g>
</g>
</svg>
