<?xml version="1.0" encoding="utf-8"?>
<!-- Generator: Adobe Illustrator 26.0.2, SVG Export Plug-In . SVG Version: 6.00 Build 0)  -->
<svg version="1.1" id="Layer_3" xmlns="http://www.w3.org/2000/svg" xmlns:xlink="http://www.w3.org/1999/xlink" x="0px" y="0px"
	 viewBox="0 0 500 500" style="enable-background:new 0 0 500 500;" xml:space="preserve">
<g>
	<g>
		<path d="M440,435.6H60V64.4h380V435.6z M90,405.6h320V94.4H90V405.6z"/>
	</g>
	<g>
		<path d="M297.8,324h-45l-12-35.4h-47.4L181.8,324H140l50.9-148.5l1.2-14.1H240L297.8,324z M260,314h23.6L233,171.4h-31.7l-0.5,6.1
			L154,314h20.6l11.7-35.4h61.8L260,314z"/>
	</g>
	<g>
		<path d="M242.1,258.9h-50.5l25-82.8L242.1,258.9z M205.1,248.9h23.5l-11.9-38.5L205.1,248.9z"/>
	</g>
	<g>
		<path d="M343.6,324h-41.8V199.2h41.8V324z M311.8,314h21.8V209.2h-21.8V314z"/>
	</g>
	<g>
		<path d="M323.1,196.8c-12.9,0-23.4-10.5-23.4-23.4c0-12.9,10.5-23.4,23.4-23.4s23.4,10.5,23.4,23.4
			C346.5,186.4,336,196.8,323.1,196.8z M323.1,160.1c-7.4,0-13.4,6-13.4,13.4s6,13.4,13.4,13.4s13.4-6,13.4-13.4
			S330.5,160.1,323.1,160.1z"/>
	</g>
</g>
</svg>
